<svg xmlns="http://www.w3.org/2000/svg" width="458" height="468" fill="none" viewBox="0 0 458 468"><path fill="url(#paint0_linear)" d="M283.742 55.3199C323.354 77.3677 354.156 106.478 376.15 142.65C398.143 178.823 399.815 214.672 381.167 250.197C362.518 285.722 343.886 322.011 325.27 359.062C306.654 396.114 277.53 410.029 237.897 400.809C198.264 391.589 162.686 376.478 131.163 355.477C99.6396 334.475 74.7758 303.71 56.5717 263.179C38.3675 222.649 42.7702 184.531 69.7797 148.825C96.7892 113.118 129.299 83.0958 167.309 58.7568C205.319 34.4177 244.13 33.2721 283.742 55.3199Z"/><defs><linearGradient id="paint0_linear" x1="49.727" x2="398.344" y1="408.143" y2="400.596" gradientUnits="userSpaceOnUse"><stop stop-color="#F43B47"/><stop offset="1" stop-color="#453A94"/></linearGradient></defs></svg>