<svg xmlns="http://www.w3.org/2000/svg" width="577" height="565" fill="none" viewBox="0 0 577 565"><path fill="url(#paint0_linear)" d="M393.503 308.094C390.015 336.107 383.573 347.332 368.552 367.552C353.532 387.773 323.008 412.282 299.553 408.048C276.097 403.813 260.703 396.112 236.42 392.195C212.137 388.278 198.231 373.557 194.702 348.034C191.172 322.511 191.74 298.266 196.405 275.3C201.07 252.334 212.513 231.449 230.735 212.647C248.958 193.845 270.75 189.046 296.112 198.25C321.474 207.454 344.919 221.06 366.445 239.066C387.972 257.072 396.991 280.082 393.503 308.094Z"/><defs><linearGradient id="paint0_linear" x1="157.21" x2="236.725" y1="236.946" y2="444.161" gradientUnits="userSpaceOnUse"><stop stop-color="#E3FDF5"/><stop offset="1" stop-color="#FFE6FA"/></linearGradient></defs></svg>