<svg xmlns="http://www.w3.org/2000/svg" viewBox="0 0 571.4 96.59"><defs><style>.a{isolation:isolate;}.b{fill:#413768;}</style></defs><title>text-logo</title><g class="a"><path class="b" d="M58.72,99.51a26.9,26.9,0,0,0,8.11-1.27v8.34a22.06,22.06,0,0,1-4.74,1.35,32.77,32.77,0,0,1-6,.54q-15.75,0-15.75-16.6V63.76H33.2v-4.9l7.64-4.06,3.78-11h6.84v11.6H66.31v8.39H51.46V91.68c0,2.67.66,4.65,2,5.92A7.33,7.33,0,0,0,58.72,99.51Z" transform="translate(-33.2 -34.14)"/><path class="b" d="M100,108.47q-12.16,0-19-7.1T74.14,81.83q0-12.8,6.37-20.1T98,54.42q10.34,0,16.32,6.28t6,17.26v6H85.55q.24,7.59,4.11,11.67t10.89,4.08a40.39,40.39,0,0,0,8.61-.87,46,46,0,0,0,8.56-2.9v9a34.32,34.32,0,0,1-8.21,2.74A50.76,50.76,0,0,1,100,108.47ZM98,62.82a11.13,11.13,0,0,0-8.46,3.35q-3.18,3.35-3.8,9.76h23.68q-.11-6.47-3.12-9.79A10.66,10.66,0,0,0,98,62.82Z" transform="translate(-33.2 -34.14)"/><path class="b" d="M167.94,92.67q0,7.64-5.56,11.72t-15.94,4.08q-10.42,0-16.74-3.16V95.74A41.05,41.05,0,0,0,146.81,100q10.24,0,10.24-6.18a4.91,4.91,0,0,0-1.13-3.3,13.44,13.44,0,0,0-3.73-2.73A62,62,0,0,0,145,84.56q-9-3.5-12.2-7a12.92,12.92,0,0,1-3.18-9,11.89,11.89,0,0,1,5.4-10.4q5.4-3.71,14.69-3.71a41.66,41.66,0,0,1,17.4,3.73l-3.58,8.35Q155.07,63,149.31,63q-8.76,0-8.77,5a5,5,0,0,0,2.29,4.15q2.28,1.7,10,4.67a45.49,45.49,0,0,1,9.39,4.57,13.69,13.69,0,0,1,4.34,4.79A13.87,13.87,0,0,1,167.94,92.67Z" transform="translate(-33.2 -34.14)"/><path class="b" d="M199.35,99.51a26.9,26.9,0,0,0,8.11-1.27v8.34a21.72,21.72,0,0,1-4.74,1.35,32.69,32.69,0,0,1-6,.54q-15.75,0-15.75-16.6V63.76h-7.12v-4.9l7.64-4.06,3.77-11h6.84v11.6h14.85v8.39H192.09V91.68c0,2.67.67,4.65,2,5.92A7.33,7.33,0,0,0,199.35,99.51Z" transform="translate(-33.2 -34.14)"/><path class="b" d="M261.84,107.53H250.71V75.36c0-4-.76-7-2.26-8.93s-3.87-3-7.08-3q-6.41,0-9.41,4.17t-3,13.89v26H217.89V55.37h8.67l1.56,6.84h.57A14.37,14.37,0,0,1,235,56.45a20.34,20.34,0,0,1,9.08-2q12,0,15.94,8.21h.75a15.91,15.91,0,0,1,6.51-6,20.75,20.75,0,0,1,9.62-2.17q9.35,0,13.61,4.72t4.27,14.38v34H283.67V75.36q0-6-2.28-8.93c-1.53-2-3.89-3-7.1-3q-6.46,0-9.46,4t-3,12.38Z" transform="translate(-33.2 -34.14)"/><path class="b" d="M342.86,107.53l-2.21-7.27h-.38a21.4,21.4,0,0,1-7.6,6.49,23.91,23.91,0,0,1-9.8,1.72q-7.69,0-12-4.15t-4.31-11.74q0-8.07,6-12.17t18.25-4.48l9-.28V72.86q0-5-2.34-7.47t-7.24-2.48a25.17,25.17,0,0,0-7.68,1.18,60.18,60.18,0,0,0-7.08,2.78L311.88,59a38.37,38.37,0,0,1,9.29-3.37,42.75,42.75,0,0,1,9.52-1.16q10,0,15,4.34t5.07,13.63v35.14ZM326.36,100q6,0,9.69-3.37t3.65-9.46V82.63l-6.7.28q-7.81.28-11.38,2.62a7.92,7.92,0,0,0-3.56,7.14,7,7,0,0,0,2.07,5.4Q322.2,100,326.36,100Z" transform="translate(-33.2 -34.14)"/><path class="b" d="M365.59,41.55A6.13,6.13,0,0,1,367.22,37a6.36,6.36,0,0,1,4.64-1.6,6.27,6.27,0,0,1,4.56,1.6A6.17,6.17,0,0,1,378,41.55,6,6,0,0,1,376.42,46a6.2,6.2,0,0,1-4.56,1.62A6.28,6.28,0,0,1,367.22,46,6,6,0,0,1,365.59,41.55Zm11.75,66H366.25V55.37h11.09Z" transform="translate(-33.2 -34.14)"/><path class="b" d="M404.26,107.53H393.18V34.14h11.08Z" transform="translate(-33.2 -34.14)"/><path class="b" d="M419.36,102.53a7.08,7.08,0,0,1,1.43-4.79,5.25,5.25,0,0,1,4.13-1.63,5.61,5.61,0,0,1,4.27,1.63,6.76,6.76,0,0,1,1.53,4.79,6.64,6.64,0,0,1-1.55,4.71,6.2,6.2,0,0,1-8.23.17C419.88,106.42,419.36,104.79,419.36,102.53Z" transform="translate(-33.2 -34.14)"/><path class="b" d="M478,107.53l-1.56-7.36H476a21.71,21.71,0,0,1-7.71,6.58,23.46,23.46,0,0,1-9.6,1.72q-7.68,0-12-4t-4.37-11.27q0-15.66,25.05-16.41l8.77-.29v-3.2q0-6.09-2.62-9t-8.37-2.9q-6.47,0-14.62,4l-2.41-6a37.25,37.25,0,0,1,8.37-3.25A36.14,36.14,0,0,1,465.62,55q9.24,0,13.7,4.1t4.46,13.16v35.28ZM460.29,102q7.31,0,11.48-4T476,86.78V82.11l-7.83.33q-9.33.33-13.46,2.9t-4.13,8a8.06,8.06,0,0,0,2.57,6.46Q455.67,102,460.29,102Z" transform="translate(-33.2 -34.14)"/><path class="b" d="M524,108.47a22.37,22.37,0,0,1-9.22-1.86,17.37,17.37,0,0,1-7-5.73h-.56a68.77,68.77,0,0,1,.56,8.58v21.27h-7.82V55.84h6.36l1.09,7.07h.37a18.28,18.28,0,0,1,7-6.13A21.48,21.48,0,0,1,524,54.9q10.27,0,15.87,7t5.59,19.72q0,12.72-5.69,19.78T524,108.47Zm-1.13-46.92q-7.94,0-11.46,4.38t-3.64,14v1.75q0,10.89,3.64,15.58T523,101.91a12.1,12.1,0,0,0,10.49-5.42q3.79-5.42,3.8-14.95t-3.8-14.83A12.49,12.49,0,0,0,522.83,61.55Z" transform="translate(-33.2 -34.14)"/><path class="b" d="M583.15,108.47a22.37,22.37,0,0,1-9.22-1.86,17.3,17.3,0,0,1-7-5.73h-.56a70.74,70.74,0,0,1,.56,8.58v21.27h-7.83V55.84h6.37l1.08,7.07h.38a18.2,18.2,0,0,1,7-6.13,21.48,21.48,0,0,1,9.2-1.88q10.27,0,15.86,7t5.59,19.72q0,12.72-5.68,19.78T583.15,108.47ZM582,61.55q-7.92,0-11.46,4.38t-3.63,14v1.75q0,10.89,3.63,15.58t11.65,4.69a12.09,12.09,0,0,0,10.49-5.42q3.81-5.42,3.8-14.95t-3.8-14.83A12.49,12.49,0,0,0,582,61.55Z" transform="translate(-33.2 -34.14)"/></g></svg>